<?xml version="1.0" encoding="UTF-8" standalone="no"?>
<svg
   xmlns:dc="http://purl.org/dc/elements/1.1/"
   xmlns:cc="http://creativecommons.org/ns#"
   xmlns:rdf="http://www.w3.org/1999/02/22-rdf-syntax-ns#"
   xmlns:svg="http://www.w3.org/2000/svg"
   xmlns="http://www.w3.org/2000/svg"
   xmlns:sodipodi="http://sodipodi.sourceforge.net/DTD/sodipodi-0.dtd"
   xmlns:inkscape="http://www.inkscape.org/namespaces/inkscape"
   version="1.1"
   viewBox="0 0 64 64"
   xml:space="preserve"
   id="svg941"
   sodipodi:docname="link-note.svg"
   inkscape:version="1.0.2-2 (e86c870879, 2021-01-15)"><metadata
     id="metadata945"><rdf:RDF><cc:Work
         rdf:about=""><dc:format>image/svg+xml</dc:format><dc:type
           rdf:resource="http://purl.org/dc/dcmitype/StillImage" /></cc:Work></rdf:RDF></metadata><sodipodi:namedview
     pagecolor="#ffffff"
     bordercolor="#666666"
     borderopacity="1"
     objecttolerance="10"
     gridtolerance="10"
     guidetolerance="10"
     inkscape:pageopacity="0"
     inkscape:pageshadow="2"
     inkscape:window-width="1593"
     inkscape:window-height="921"
     id="namedview943"
     showgrid="false"
     inkscape:zoom="10.067426"
     inkscape:cx="32"
     inkscape:cy="32.481177"
     inkscape:window-x="0"
     inkscape:window-y="0"
     inkscape:window-maximized="0"
     inkscape:current-layer="svg941"
     inkscape:document-rotation="0" /><defs
     id="defs923"><clipPath
       id="clipPath4424"><path
         d="m0 48h48v-48h-48z"
         id="path920" /></clipPath></defs><path
     style="fill:none;stroke:#c87137;stroke-width:1px;stroke-linecap:butt;stroke-linejoin:miter;stroke-opacity:1"
     d="m 7.2891712,14.935255 41.2510518,0.411816 8.748948,6.11591 -0.05737,28.472275 L 7.5186518,49.409533 7.2891712,14.935255"
     id="path3349" /><g
     transform="matrix(1.9123384,0,0,-2.190512,-8.009536,87.222151)"
     id="g939"><g
       transform="translate(8,33)"
       id="g927"><path
         d="M 0,0 0.12,-15.738 26.116,-15.978 26,-3 21.571,-0.188 Z"
         fill="#ffce00"
         id="path925" /></g><g
       transform="translate(29.81,32.652)"
       id="g931"><path
         d="m 0,0 -0.093,-2.85 4.429,0.218 z"
         fill="#c19d05"
         id="path929" /></g><g
       clip-path="url(#clipPath4424)"
       id="g937"><g
         transform="translate(13.941,27.549)"
         id="g935"><path
           d="M 0,0 C -3.11,-0.559 -3.19,-4.625 -0.08,-5.104 4.261,-5.771 9.658,-0.056 12.918,-0.399 15.949,-0.718 16.109,-4.864 12.6,-5.264 8.489,-5.731 3.339,0.6 0,0 Z"
           fill="none"
           stroke="#0679bf"
           stroke-miterlimit="10"
           id="path933" /></g></g></g></svg>
