STARTFONT 2.1
FONT -misc-xtrackcad-Medium-R-Normal-xtrackcad-20-200-96-96-C-140-ISO10646-1
SIZE 20 96 96
FONTBOUNDINGBOX 16 20 0 0
STARTPROPERTIES 12
POINT_SIZE 200
PIXEL_SIZE 20
RESOLUTION_X 96
RESOLUTION_Y 96
FONT_ASCENT 20
FONT_DESCENT 0
AVERAGE_WIDTH 140
SPACING "C"
CHARSET_ENCODING "1"
CHARSET_REGISTRY "ISO10646"
_GBDFED_INFO "Edited with gbdfed 1.6."
ADD_STYLE_NAME "xtrackcad"
ENDPROPERTIES
CHARS 10
STARTCHAR Digit 0
ENCODING 48
SWIDTH 600 0
DWIDTH 16 0
BBX 16 20 0 0
BITMAP
0FC0
3FF0
7FF8
F87C
F03C
F03C
F03C
F03C
F03C
F03C
F03C
F03C
F03C
F03C
F03C
F03C
F87C
7FF8
3FF0
0FC0
ENDCHAR
STARTCHAR Digit 1
ENCODING 49
SWIDTH 600 0
DWIDTH 8 0
BBX 8 20 0 0
BITMAP
3C00
7C00
FC00
FC00
1C00
1C00
1C00
1C00
1C00
1C00
1C00
1C00
1C00
1C00
1C00
1C00
1C00
1C00
1C00
1C00
ENDCHAR
STARTCHAR Digit 2
ENCODING 50
SWIDTH 600 0
DWIDTH 16 0
BBX 16 20 0 0
BITMAP
0FC0
3FF0
7FF8
F87C
F03C
E03C
003C
007C
00F8
01F0
03E0
07C0
0F80
1F00
3E00
7C1C
F83C
FFFC
FFFC
FFFC
ENDCHAR
STARTCHAR Digit 3
ENCODING 51
SWIDTH 600 0
DWIDTH 16 0
BBX 16 20 0 0
BITMAP
0FC0
3FF0
7FF8
F87C
F03C
003C
003C
0078
07F0
07E0
07F0
0078
003C
003C
003C
F03C
F87C
7FF8
3FF0
0FC0
ENDCHAR
STARTCHAR Digit 4
ENCODING 52
SWIDTH 600 0
DWIDTH 16 0
BBX 16 20 0 0
BITMAP
00F0
3CF0
3CF0
3CF0
78F0
78F0
78F0
78F0
F0F0
F0F0
F0F0
F0F0
FFFC
FFFC
FFFC
00F0
00F0
00F0
00F0
00F0
ENDCHAR
STARTCHAR Digit 5
ENCODING 53
SWIDTH 600 0
DWIDTH 16 0
BBX 16 20 0 0
BITMAP
FFFC
FFFC
FFFC
F03C
F03C
F000
F000
F7E0
FFF0
FFF8
F078
003C
003C
003C
003C
F03C
F87C
7FF8
3FF0
0FC0
ENDCHAR
STARTCHAR Digit 6
ENCODING 54
SWIDTH 600 0
DWIDTH 16 0
BBX 16 20 0 0
BITMAP
0FC0
3FF0
7FF8
F878
F03C
F03C
F000
F000
F7C0
FFF0
FFF8
F87C
F03C
F03C
F03C
F03C
F87C
7FF8
3FF0
0FC0
ENDCHAR
STARTCHAR Digit 7
ENCODING 55
SWIDTH 600 0
DWIDTH 16 0
BBX 16 20 0 0
BITMAP
FFFC
FFFC
FFFC
F03C
F078
0078
00F0
00F0
01E0
01E0
01E0
03C0
03C0
03C0
0780
0780
0780
0F00
0F00
0F00
ENDCHAR
STARTCHAR Digit 8
ENCODING 56
SWIDTH 600 0
DWIDTH 16 0
BBX 16 20 0 0
BITMAP
0FC0
3FF0
7FF8
F87C
F03C
F03C
F03C
7878
3FF0
1FE0
3FF0
7878
F03C
F03C
F03C
F03C
F87C
7FF8
3FF0
0FC0
ENDCHAR
STARTCHAR Digit 9
ENCODING 57
SWIDTH 600 0
DWIDTH 16 0
BBX 16 20 0 0
BITMAP
0FC0
3FF0
7FF8
F87C
F03C
F03C
F03C
F03C
F87C
7FFC
3FFC
0FFC
003C
003C
003C
F03C
F87C
7FF8
3FF0
0FC0
ENDCHAR
ENDFONT
