STARTFONT 2.1
FONT -misc-xtrackcad-Medium-R-Normal-xtrackcad-10-100-96-96-C-140-ISO10646-1
SIZE 10 96 96
FONTBOUNDINGBOX 8 10 0 0
STARTPROPERTIES 11
POINT_SIZE 100
PIXEL_SIZE 10
RESOLUTION_X 96
RESOLUTION_Y 96
FONT_ASCENT 10
FONT_DESCENT 0
AVERAGE_WIDTH 70
SPACING "C"
CHARSET_ENCODING "1"
CHARSET_REGISTRY "ISO10646"
_GBDFED_INFO "Edited with gbdfed 1.6."
ENDPROPERTIES
CHARS 10
STARTCHAR 048
ENCODING 48
SWIDTH 600 0
DWIDTH 8 0
BBX 8 10 0 0
BITMAP
78
FC
CC
CC
CC
CC
CC
CC
FC
78
ENDCHAR
STARTCHAR 049
ENCODING 49
SWIDTH 600 0
DWIDTH 8 0
BBX 8 10 0 0
BITMAP
30
70
F0
30
30
30
30
30
30
30
ENDCHAR
STARTCHAR 050
ENCODING 50
SWIDTH 600 0
DWIDTH 8 0
BBX 8 10 0 0
BITMAP
78
FC
CC
0C
1C
38
70
E0
FC
FC
ENDCHAR
STARTCHAR 051
ENCODING 51
SWIDTH 600 0
DWIDTH 8 0
BBX 8 10 0 0
BITMAP
78
FC
CC
0C
78
78
0C
CC
FC
78
ENDCHAR
STARTCHAR 052
ENCODING 52
SWIDTH 600 0
DWIDTH 8 0
BBX 8 10 0 0
BITMAP
60
60
6C
CC
CC
FC
FC
0C
0C
0C
ENDCHAR
STARTCHAR 053
ENCODING 53
SWIDTH 600 0
DWIDTH 8 0
BBX 8 10 0 0
BITMAP
FC
FC
C0
C0
F8
7C
0C
CC
FC
78
ENDCHAR
STARTCHAR 054
ENCODING 54
SWIDTH 600 0
DWIDTH 8 0
BBX 8 10 0 0
BITMAP
78
FC
CC
C0
F8
FC
CC
CC
FC
78
ENDCHAR
STARTCHAR 055
ENCODING 55
SWIDTH 600 0
DWIDTH 8 0
BBX 8 10 0 0
BITMAP
FC
FC
0C
0C
18
18
18
30
30
30
ENDCHAR
STARTCHAR 056
ENCODING 56
SWIDTH 600 0
DWIDTH 8 0
BBX 8 10 0 0
BITMAP
78
FC
CC
CC
78
78
CC
CC
FC
78
ENDCHAR
STARTCHAR 057
ENCODING 57
SWIDTH 600 0
DWIDTH 8 0
BBX 8 10 0 0
BITMAP
78
FC
CC
CC
FC
7C
0C
CC
FC
78
ENDCHAR
ENDFONT
