STARTFONT 2.1
FONT -misc-xtrackcad-Medium-R-Normal-xtrackcad-15-150-96-96-C-140-ISO10646-1
SIZE 15 96 96
FONTBOUNDINGBOX 10 19 0 -4
STARTPROPERTIES 11
POINT_SIZE 150
PIXEL_SIZE 15
RESOLUTION_X 96
RESOLUTION_Y 96
FONT_ASCENT 15
FONT_DESCENT 0
AVERAGE_WIDTH 100
SPACING "C"
CHARSET_ENCODING "1"
CHARSET_REGISTRY "ISO10646"
_GBDFED_INFO "Edited with gbdfed 1.6."
ENDPROPERTIES
CHARS 10
STARTCHAR Digit 0
ENCODING 48
SWIDTH 500 0
DWIDTH 12 0
BBX 12 15 0 0
BITMAP
3F00
7F80
F3C0
E1C0
E1C0
E1C0
E1C0
E1C0
E1C0
E1C0
E1C0
E1C0
F3C0
7F80
3F00
ENDCHAR
STARTCHAR Digit 1
ENCODING 49
SWIDTH 500 0
DWIDTH 8 0
BBX 8 15 0 0
BITMAP
3800
7800
F800
F800
B800
3800
3800
3800
3800
3800
3800
3800
3800
3800
3800
ENDCHAR
STARTCHAR Digit 2
ENCODING 50
SWIDTH 500 0
DWIDTH 12 0
BBX 12 15 0 0
BITMAP
1F00
7F80
F3C0
E1C0
01C0
03C0
0780
0F00
1E00
3C00
7800
F000
E1C0
FFC0
FFC0
ENDCHAR
STARTCHAR Digit 3
ENCODING 51
SWIDTH 500 0
DWIDTH 12 0
BBX 12 15 0 0
BITMAP
1E00
7F80
F3C0
E1C0
01C0
0380
1F80
1F00
0780
03C0
01C0
E1C0
F3C0
7F80
1E00
ENDCHAR
STARTCHAR Digit 4
ENCODING 52
SWIDTH 500 0
DWIDTH 12 0
BBX 12 15 0 0
BITMAP
3B80
3B80
3B80
7380
7380
7380
E380
E380
E380
FFC0
FFC0
0380
0380
0380
0380
ENDCHAR
STARTCHAR Digit 5
ENCODING 53
SWIDTH 500 0
DWIDTH 12 0
BBX 12 15 0 0
BITMAP
FFC0
FFC0
E000
E000
E000
FF00
FF80
01C0
01C0
01C0
E1C0
E1C0
F3C0
7F80
3F00
ENDCHAR
STARTCHAR Digit 6
ENCODING 54
SWIDTH 500 0
DWIDTH 12 0
BBX 12 15 0 0
BITMAP
1E00
7F80
73C0
E1C0
E000
E000
FF00
FF80
F3C0
E1C0
E1C0
E1C0
F3C0
7F80
1E00
ENDCHAR
STARTCHAR Digit 7
ENCODING 55
SWIDTH 500 0
DWIDTH 12 0
BBX 12 15 0 0
BITMAP
FFC0
FFC0
E1C0
01C0
0380
0380
0700
0700
0700
0E00
0E00
0E00
1C00
1C00
1C00
ENDCHAR
STARTCHAR Digit 8
ENCODING 56
SWIDTH 500 0
DWIDTH 12 0
BBX 12 15 0 0
BITMAP
1E00
7F80
F3C0
E1C0
E1C0
F3C0
7F80
7F80
F3C0
E1C0
E1C0
E1C0
F3C0
7F80
1E00
ENDCHAR
STARTCHAR Digit 9
ENCODING 57
SWIDTH 500 0
DWIDTH 12 0
BBX 12 15 0 0
BITMAP
1E00
7F80
F3C0
E1C0
E1C0
E1C0
73C0
7FC0
1FC0
01C0
01C0
E1C0
F3C0
7F80
1E00
ENDCHAR
ENDFONT
